<svg xmlns="http://www.w3.org/2000/svg" xml:space="preserve" id="Layer_1" x="0" y="0" viewBox="0 0 200 200">
  <style>
    .st0{fill:#bd1818}
  </style>
  <path d="m106.9 3-7.1 7.9L92.6 3l.5 10.7-10.7-.5 7.9 7.1-7.9 7.1 10.7-.5-.5 10.7 7.1-7.9 7.1 7.9-.5-10.7 10.7.5-7.9-7.1 7.9-7.1-10.7.5.6-10.7zM169.5 47.5H30.4v88.8c0 6 1.6 11.4 4.6 16.5 2.2 3.7 5.3 6.7 8.3 9.6 1.9 1.8 3.9 3.6 5.9 5.3 14.5 12.4 31 21.6 49 28.4.6.2 1.1.3 1.7.3.6 0 1.1-.1 1.7-.3 18-6.8 34.5-16 49-28.4 2-1.7 4-3.5 5.9-5.3 3.1-2.9 6.1-5.9 8.3-9.6 3-5.1 4.6-10.5 4.6-16.5.1-6.3.1-88.5.1-88.8zM155 146.9c-1.4 2.4-4 4.8-6.4 7.2-2 1.9-4 3.7-6.1 5.5L100 117.1v67.4c-16.4-6.4-30.4-14.7-42.5-24.9l42.5-42.5H42v-58l58 58v-58h58l-58 58h58v19.3c0 3.6-1 7.1-3 10.5z" class="st0"/>
</svg>
